<mxfile host="65bd71144e">
    <diagram id="vYRwhDhiv7S-jTouhoGO" name="Page-1">
        <mxGraphModel dx="1268" dy="1356" grid="0" gridSize="10" guides="1" tooltips="1" connect="1" arrows="1" fold="1" page="0" pageScale="1" pageWidth="850" pageHeight="1100" math="0" shadow="0">
            <root>
                <mxCell id="0"/>
                <mxCell id="1" parent="0"/>
                <mxCell id="2" value="" style="strokeWidth=1;shadow=0;dashed=0;align=center;html=1;shape=mxgraph.mockup.containers.browserWindow;rSize=0;strokeColor=#666666;strokeColor2=#008cff;strokeColor3=#c4c4c4;mainText=,;recursiveResize=0;" vertex="1" parent="1">
                    <mxGeometry x="26" y="3" width="1120" height="735" as="geometry"/>
                </mxCell>
                <mxCell id="21" value="" style="whiteSpace=wrap;html=1;fillColor=#000066;fontColor=#ffffff;strokeColor=#001DBC;" vertex="1" parent="2">
                    <mxGeometry x="47" y="185" width="608" height="525" as="geometry"/>
                </mxCell>
                <mxCell id="3" value="Page 1" style="strokeWidth=1;shadow=0;dashed=0;align=center;html=1;shape=mxgraph.mockup.containers.anchor;fontSize=17;fontColor=#666666;align=left;" vertex="1" parent="2">
                    <mxGeometry x="60" y="12" width="110" height="26" as="geometry"/>
                </mxCell>
                <mxCell id="4" value="https://www.draw.io" style="strokeWidth=1;shadow=0;dashed=0;align=center;html=1;shape=mxgraph.mockup.containers.anchor;rSize=0;fontSize=17;fontColor=#666666;align=left;" vertex="1" parent="2">
                    <mxGeometry x="130" y="60" width="250" height="26" as="geometry"/>
                </mxCell>
                <mxCell id="5" value="" style="dashed=0;outlineConnect=0;html=1;align=center;labelPosition=center;verticalLabelPosition=bottom;verticalAlign=top;shape=mxgraph.weblogos.chrome;fillColor=#008a00;fontColor=#ffffff;strokeColor=#005700;" vertex="1" parent="2">
                    <mxGeometry x="454" y="-89" width="240" height="199" as="geometry"/>
                </mxCell>
                <mxCell id="17" value="cost a = &quot;Hello world&quot;&lt;br&gt;const b = &quot;I am Eric&quot;&lt;br&gt;&lt;br&gt;&lt;br&gt;const sayHello = () =&amp;gt; {&lt;br&gt;&amp;nbsp; const sayHiToEric&amp;nbsp; = () =&amp;gt;{&lt;br&gt;&amp;nbsp; &amp;nbsp; console.log( b )&lt;br&gt;&amp;nbsp; }&lt;br&gt;&amp;nbsp; console.log(a)&lt;br&gt;&amp;nbsp; sayHiToEric()&lt;br&gt;}" style="whiteSpace=wrap;html=1;align=left;" vertex="1" parent="2">
                    <mxGeometry x="266" y="481" width="171" height="163" as="geometry"/>
                </mxCell>
                <mxCell id="18" value="" style="shape=image;verticalLabelPosition=bottom;labelBackgroundColor=default;verticalAlign=top;aspect=fixed;imageAspect=0;image=data:image/png,iVBORw0KGgoAAAANSUhEUgAAAKsAAAChCAYAAAC4c09/AAAKpmlDQ1BJQ0MgUHJvZmlsZQAASImVlgdUU+kSgP9700NCSeg19Ca9BZASegAB6WAjJCEJJYRAaGJDFldwLaiIgKJYEQXXAsgqIqLYFsWKoi7IIqCsiwUblneBQ9jdd957503O3P/L3Pnnn7nnzj0DAJnEEolSYXkA0oRZ4nB/L1psXDwNNwwIgAJkgRzAsNiZIkZYWDBAZHb9u7y/D6Cp9Y7FVKx/v/9fRYHDzWQDAIUhnMjJZKchfArREbZInAUAqhqx6+dkiaa4HWFFMZIgwnenmDfDI1OcOMNfpn0iw70BQCNV4UkslpgHAEkTsdOy2TwkDmk+wtZCjkCI8FS+7mlp6RyEjyJsgviIEJ6KT0/8Sxze32ImSmOyWDwpz9QyLXgfQaYolZX3fz6O/y1pqZLZM4wQJfHFAeHIiuQF9aakB0lZmBgSOssCzrT/NPMlAVGzzM70jp9lDssnSLo3NSR4lpMEfkxpnCxm5CxzM30jZlmcHi49K0nszZhllnjuXElKlNTO5zKl8fP5kTGznC2IDpnlzJSIoDkfb6ldLAmX5s8V+nvNnesnrT0t8y/1CpjSvVn8yABp7ay5/LlCxlzMzFhpbhyuj++cT5TUX5TlJT1LlBom9eem+kvtmdkR0r1ZyAs5tzdM+gyTWYFhswz8QTrwAgLAQ35cEJ7Fzc2aKsI7XZQnFvD4WTQG0l1cGlPItpxHs7W2tQNgqldnXoW3vdM9CCnj52xCEwCcmgGAT8zZEnYDcJKPtF3fnM1EDmmZAQDa9rAl4uwZG3rqggFE5AugCNSANtAHJsAC2AJH4Ao8gS8IBKEgEsSBpYAN+CANiEEOKABrQDEoBZvBdlAJasA+cBgcAydAMzgLLoDL4Dq4Be6BPtAPhsBLMA7eg0kIgnAQGaJCapAOZAiZQ7YQHXKHfKFgKByKgxIgHiSEJFABtBYqhcqgSmgvVAf9DJ2BLkBXoR7oITQAjUJvoM8wCibBirAWbARbwXSYAQfBkfASmAdnwPlwEbwRroBr4aNwE3wBvg7fg/vhl/AECqBkUMooXZQFio7yRoWi4lFJKDFqJaoEVY6qRTWgWlFdqDuoftQY6hMai6aiaWgLtCs6AB2FZqMz0CvRG9CV6MPoJnQn+g56AD2O/oYhYzQx5hgXDBMTi+FhcjDFmHLMQcxpzCXMPcwQ5j0Wi1XGGmOdsAHYOGwydjl2A3YXthHbju3BDmIncDicGs4c54YLxbFwWbhi3E7cUdx53G3cEO4jXgavg7fF++Hj8UJ8Ib4cfwTfhr+NH8ZPEuQJhgQXQiiBQ8gjbCLsJ7QSbhKGCJNEBaIx0Y0YSUwmriFWEBuIl4iPiW9lZGT0ZJxlFsoIZFbLVMgcl7kiMyDziUQhmZG8SYtJEtJG0iFSO+kh6S2ZTDYie5LjyVnkjeQ68kXyU/JHWaqspSxTliO7SrZKtkn2tuwrOYKcoRxDbqlcvly53Em5m3Jj8gR5I3lveZb8Svkq+TPyD+QnFKgKNgqhCmkKGxSOKFxVGKHgKEYUXwqHUkTZR7lIGaSiqPpUbyqbupa6n3qJOqSIVTRWZComK5YqHlPsVhxXoijZK0Ur5SpVKZ1T6ldGKRspM5VTlTcpn1C+r/xZRUuFocJVWa/SoHJb5YOqhqqnKle1RLVR9Z7qZzWamq9aitoWtWa1J+podTP1heo56rvVL6mPaShquGqwNUo0Tmg80oQ1zTTDNZdr7tO8oTmhpa3lryXS2ql1UWtMW1nbUztZe5t2m/aoDlXHXUegs03nvM4LmhKNQUulVdA6aeO6mroBuhLdvbrdupN6xnpReoV6jXpP9In6dP0k/W36HfrjBjoGCwwKDOoNHhkSDOmGfMMdhl2GH4yMjWKM1hk1G40YqxozjfON640fm5BNPEwyTGpN7ppiTemmKaa7TG+ZwWYOZnyzKrOb5rC5o7nAfJd5zzzMPOd5wnm18x5YkCwYFtkW9RYDlsqWwZaFls2Wr6wMrOKttlh1WX2zdrBOtd5v3WdDsQm0KbRptXlja2bLtq2yvWtHtvOzW2XXYvfa3tyea7/bvteB6rDAYZ1Dh8NXRydHsWOD46iTgVOCU7XTA7oiPYy+gX7FGePs5bzK+azzJxdHlyyXEy5/ulq4prgecR2ZbzyfO3///EE3PTeW2163fneae4L7Hvd+D10PlketxzNPfU+O50HPYYYpI5lxlPHKy9pL7HXa64O3i/cK73YflI+/T4lPty/FN8q30vepn54fz6/eb9zfwX+5f3sAJiAoYEvAA6YWk82sY44HOgWuCOwMIgVFBFUGPQs2CxYHty6AFwQu2LrgcYhhiDCkORSEMkO3hj4JMw7LCPtlIXZh2MKqhc/DbcILwrsiqBHLIo5EvI/0itwU2RdlEiWJ6oiWi14cXRf9IcYnpiymP9YqdkXs9Tj1OEFcSzwuPjr+YPzEIt9F2xcNLXZYXLz4/hLjJblLri5VX5q69NwyuWWsZScTMAkxCUcSvrBCWbWsiURmYnXiONubvYP9kuPJ2cYZ5bpxy7jDSW5JZUkjPDfeVt4o34Nfzh8TeAsqBa+TA5Jrkj+khKYcSvmeGpPamIZPS0g7I6QIU4Sd6drpuek9InNRsag/wyVje8a4OEh8MBPKXJLZkqWIDEU3JCaSHyQD2e7ZVdkfc6JzTuYq5Apzb+SZ5a3PG873yz+wHL2cvbyjQLdgTcHACsaKvSuhlYkrO1bprypaNbTaf/XhNcQ1KWt+LbQuLCt8tzZmbWuRVtHqosEf/H+oL5YtFhc/WOe6ruZH9I+CH7vX263fuf5bCafkWql1aXnplw3sDdd+svmp4qfvG5M2dm9y3LR7M3azcPP9LR5bDpcplOWXDW5dsLVpG21bybZ325dtv1puX16zg7hDsqO/IriiZafBzs07v1TyK+9VeVU1VmtWr6/+sIuz6/Zuz90NNVo1pTWf9wj29O7139tUa1Rbvg+7L3vf8/3R+7sO0A/UHVQ/WHrw6yHhof7D4Yc765zq6o5oHtlUD9dL6kePLj5665jPsZYGi4a9jcqNpcfBccnxFz8n/Hz/RNCJjpP0kw2nDE9Vn6aeLmmCmvKaxpv5zf0tcS09ZwLPdLS6tp7+xfKXQ2d1z1adUzq3qY3YVtT2/Xz++Yl2UfvYBd6FwY5lHX0XYy/e7VzY2X0p6NKVy36XL3Yxus5fcbty9qrL1TPX6Nearzteb7rhcOP0rw6/nu527G666XSz5Zbzrdae+T1ttz1uX7jjc+fyXebd6/dC7vXcj7rf+2Dxg/5eTu/Iw9SHrx9lP5rsW/0Y87jkifyT8qeaT2t/M/2tsd+x/9yAz8CNZxHP+gbZgy9/z/z9y1DRc/Lz8mGd4boR25Gzo36jt14sejH0UvRycqz4D4U/ql+ZvDr1p+efN8Zjx4dei19/f7PhrdrbQ+/s33VMhE08fZ/2fvJDyUe1j4c/0T91fY75PDyZ8wX3peKr6dfWb0HfHn9P+/5dxBKzpkcBFKJwUhIAbw4BQI4DgHoLAOKimVl6WqCZ+X+awH/imXl7WhwBOLAagEhEQz0BQEYSYIwopR2AMOR/pCeA7eykOjv3Ts/oU6KJzFJQ9BQ9zGkA/5SZ+f0vef9zBVNR7cE/138B47ADnzaVSj4AAABWZVhJZk1NACoAAAAIAAGHaQAEAAAAAQAAABoAAAAAAAOShgAHAAAAEgAAAESgAgAEAAAAAQAAAKugAwAEAAAAAQAAAKEAAAAAQVNDSUkAAABTY3JlZW5zaG90J6B52wAAAdZpVFh0WE1MOmNvbS5hZG9iZS54bXAAAAAAADx4OnhtcG1ldGEgeG1sbnM6eD0iYWRvYmU6bnM6bWV0YS8iIHg6eG1wdGs9IlhNUCBDb3JlIDYuMC4wIj4KICAgPHJkZjpSREYgeG1sbnM6cmRmPSJodHRwOi8vd3d3LnczLm9yZy8xOTk5LzAyLzIyLXJkZi1zeW50YXgtbnMjIj4KICAgICAgPHJkZjpEZXNjcmlwdGlvbiByZGY6YWJvdXQ9IiIKICAgICAgICAgICAgeG1sbnM6ZXhpZj0iaHR0cDovL25zLmFkb2JlLmNvbS9leGlmLzEuMC8iPgogICAgICAgICA8ZXhpZjpQaXhlbFlEaW1lbnNpb24+MTYxPC9leGlmOlBpeGVsWURpbWVuc2lvbj4KICAgICAgICAgPGV4aWY6UGl4ZWxYRGltZW5zaW9uPjE3MTwvZXhpZjpQaXhlbFhEaW1lbnNpb24+CiAgICAgICAgIDxleGlmOlVzZXJDb21tZW50PlNjcmVlbnNob3Q8L2V4aWY6VXNlckNvbW1lbnQ+CiAgICAgIDwvcmRmOkRlc2NyaXB0aW9uPgogICA8L3JkZjpSREY+CjwveDp4bXBtZXRhPgra93wLAAAm7klEQVR4Ae1daXAcx3V+e+/ivkmQIEEAvEnwEkVRvA9REkWalEiLlMqyLdK25EO2c7j8I5X8SSp/UpXEqbhSScUVxxU7iR3Hsa3LkmJJjBSRkS2KlElJlHiTIiGBxA3svZv3DTDg7GJnpmdndrFDzKsCdnem+3X3629ev379useVZiKHHAnYQAJuG9TRqaIjAUkCDlgdINhGAg5YbdNVTkUdsDoYsI0EHLDapqucinodEeQngXiS6Hpvij7pTdL1vjT1DadoJJbpWCnzu6im3E3NNS5qafTQ9BpHN+Qn7dFcDlgFpJdgYIYZiIPhNJ2+nKB3LiXp3McJSqaIUozPVMolcYETMBwfBWzIx9dGL5PHnSYXf/cyVudO99KyVg8tnuWlypCLygIuvi9QCScJuRw/qzoKANArN1L0wfUE/Y4BermbtSeDMZ4gAoBBWl7qJJA8Rm5GK7DrZfXg9xGFvC6aM81NK+Z4qX2ah2Y1uCnEmtghdQk4YM0hmyiD8cT5BL19MU7nP07Rx30pwrAPgEKbKiHlhlZUXlDwS48BWnFJ0sT4jXweD4OX/5rZPOiY7qaVc3y0ot1LAWe8U4ps/LsD1nFRsJbk79CeP/+/KA/zSfpkMC1pzhSDTk2DYnh3qQzjucAqF3dL545eAXins23bwVr203cHaGa9ClOZwRT8dMA61umwR195J0YvvhOn3hEe6hVaMc3aNB+wgrUaYLPBirQpNhsCbArUl7to5yofbV7qp4qgitpGhilGUx6ssUSaznWl6Je/jdF7VxMUiY9OmpQ4KBZYUSZADHgGA0RLWzz04F0BNhE85GNzYarTlAZrjG3TV0/F6CXWptfYDYWJU077kxGUYu2ai7TMAKRX06zSvVwMkYfVOEDr9biolSdeu+7w0/pFvikP2CkN1n85EqHX3k1QH5sAegS7NRcVCqzjZbGara9w086VPnpoLavbKUxTEqxwSf3kf6P06ukEDUXYByowl5k0sDI4YS/72W8LwB7cEKAgfLhTkKack2SAJ0//xbN9DP0xtk9FgKqFCwDJBcVsIX5crK6VYcbQ3jH276LOMA0+tdpPVWUWFqjVwBK6J6BTSqi2JqsS5Q5/4URM0qiwV8lGrQdgw1EAlm3skzGS6m9SHnbLbqPuMi/a336YoGfeitEwd7qVmtB8zcQ5DPLI8IvfxOg3H/CwMMVoyoD1widJ+meeUIXRxzYfQeET/seXo/RRj4qL4jYF8ZQA682BFP3Tf0eoP3x79CJMgn6O8vq758PUw6tsU4W8V65coa6uLl6rtgdua2pqqK2tTbi+cPI//3aczvEy6mQQgKW2+mWmPuD7YVeSXmD7dT+7tPyCU+UUO4zPnj1LfX19ZoovWt4kB2PMmDmDZs+aRd6hoWF65tlnaXBgoGgVyLcgCLq+vp4OHz5MM2fOFGJzjjv0GNt3cpSUUKYcidy8gqTmvsqR/NYlmBwFUn5o05FTcVre6uWQQ7ElLiinH/7wh3Tt2rVbdSzhb+Xl5VJ/t86eTd6Ojnaqq62lD86c4ZhLSFafpBWWPNQFwGaWIOyTJ0/SjBkzdOsbYX/q6+/GpYAUs+WWav6P+1PSKlz7tCAFdUIME4kEvfrqq3T06FEKBoMZTVK6yjJuTOKPcDhMW7ZspUWLFkm1cPv9ftq1axeFQiHhagHUMBuM/IG5kfRqaT0cV/fKK69Qf3+/bn2v3kzRMfYAWEIF0o5W1A1tvMJt1aOrV6/Syy+/TGVlZRye6Bn/Q39a/adXF5H7VVVVdODAAQJGQZKhOnfuXNq6dSvF46XvDgGIz507R8eOHdNt7y/fHHNT6abUT5DvoJDHAKRfGUUKDIZY6EBb9egHP/gB3bhxQ3dE0uNTjPuDg4O0e/duWrBg/nhx47MqILi6ujpj5WQ8VYl98XK4/fe//33Nh+six6MeO8sPn5hlY7qFiMxK8KJDjE0P/OG7ZOMWQSPz80tHz8Spi4PE1ejtt9+m119/nXw+3qZQ4gRzpbGxkR577LGMmo6DNRAI0JNPPknJpErERka2yf0B7RqJROjnP/+56sP1qxPmJ1VarQQG8Ydofz/binOa3LS900cPr/NLf/jexttWAhyPiiVdaNhC4jbBOFXTrkNDQ/Sd73zHkKmn1fZC34vxOvi3vvUtAiaVlOHwWLx4Ma1evZreeustyZ5RJiy172jI008/TZs2baJp06ZlVK+fh8XjvC3Fy/ucCkHY2tJY6aIFvOlvTbuHlrV5qVplrR51eedCgt48n6QzVxLUzX5RbBC0umYwB46y7XpwQzqjLlA+zz33nOSqwkNe6gRTdN369bR06dIJVc2oPQzv7du3Uy17B6ykQsw0Ze360ksvcaxp5vCHHajZ26Ktao+bQbF+kZeeeiBIX98ZpI1LfBngyC4HIEYapH1qV5A2LfZKGtZqLQuwjvAyMgLIlQTvyWuvvaa8VLLfgRP40XfveoDgssqmDLBiRghEL1iwQHV4zWYwWb8BUDTu+PHjhA5R0rtXkxnbUpT3zHyHgYRh/qv3BamTd6WKOuJRJtIuY3/olznvwfV+0jK28n24E7zr4dTlW5yhpY4cOSItAqBv7UDA38qVK3NOAjPAisZgeP3Upz41wQ9Xig1FB1y8eFHyu8raFTNjHD5h6Syc1WCS/z67EfZoQNrrn2/XY7v1AeYBXoCVlRoW5sk1PnBjmGN0Qd3d3fTiiy+Ou36kiyX8D/356KOPTrBV5SpPACtuwJW1efNmzdm2zEDvE1oiX02hxxv3YQ7Adyj7XXuGUtQ3ZCUERmtxYK2f9lkYqQ9ej7KGVRwtINJc3TS9gynqGWs/Vqp6e3tzaildRkVOgAkz/P3AnhrlBCsS79u3T5q4yBpLjYHe9UICFWUDrNCub7zxhlQVdFQfa1erZjBwjqyZ56O9d406pvXaa+Q+9latmedlk8Wih4vV/Q0GazcH7sA8wkMsO9SN1KvYaTEJbOJJ8mc+8xnNolXBitUDrMHHYvrOZs0SCnAz+wGC7/B73/ueNBL0D6dpQGBPlVC1GEMNPOu/d5mXQnzMj9WEo4N2rvCxZ8FtiTmAGsIM6uoZpu9+929Vh1NlOwox8hlVUCMjI/R73/wmAXNapApWZMJEa926dQQnbT6UDap8eIjkkScP//EfP6EoaymrFBX03fyZXlrY4rVKUWc0B+DCmVcdMz3CNraeDgbPp597lfr6B2wx/ANb29gDtWTJkgzZ5PqhCVa4srAMC8QbfVqMps9VOSPXoF2fffYZ+t17V4i3KVlCOEjtzjaPoVm/0YLhJVjLRwZ5xYKmhNh39UR59Sw/BSNUgEWJgBGsmt53771SvIIeW02wQmNhoWDZsmV6fDLuoxKFAqsW33AkRifevWB6E6DcmCCvTC6ebSGKZMZZn51z+BALi3aswkPl8VexDApf76xmGP4JfK1atYqWL18uNApoghWlIxoLszSsx5c6wV1lNm5V2cZKXiqtZ3uy0IQy6njxAMcHmSXIwOVCX1k0vJitkEZ+mIn79+8XXgYW6omOjg7JHBCxXQupVdFuLc2qIRfDtxCE0t7k4Y43nNVwBpTRUsfbrw3ntG8GxKo+8IC2qyq7dUJgRaZHHnmE6urqNANdCg3U7Mpn/3bz0JdOWWOrpVhF1VQUAaljjaivYo9A5qpxdvM0f0OjggD8dBoyKF3ow1VV39DA3qZDUp1F/wmDFZOtz33u86qarRhA1fMueNxeSsUGRduumw6RTKVEIvADaJOxAQb+rWVXrTYUa6RS1gFg/drXviY0qVLmEwYrMi1fvozWrFmT4cpCYwGiyWi0siGj37mDEryDQKRXJ2bOuIKTqrErtliEskZDCc1X3pWA20psglXsfsNK1caNG2n1HXcYFq0hsCISBq4sfMqNlD8Nl2wwg55WBbs0H9mXCnfjm0HuE5NjMn21B16NifesvoJ51aUbfOaWBYxdfJZRYvi6ZeaQBVUaZwGsVFZW0o4dO3JGVY0nVPliCKzggc1bcDegYBEAqZRr6LKRByIeGaBEbNgQf7XEPbwadJOXLwtN3bzpr4+DT9yIPzRJyXiEUnFr2m+yKhOyox8xMht1hcqMDIMVtuv9999f1DVnI2B1JUaI4tbYrXHemnLigpjtJws0n0+8XAPbYLRI665S+6ejfSTJADOtEiPEcTz00D7DtqrcDMNgRUZpg+G27UWJGzAEVDb6fOkhcsduyu0z9QmfLfZxYUt3oQi8UQbKMtJWtfq44z3kSfao3c64jolOsQiuqof27c/YAGi07LzAipWHQ49/XnpC5MkVBK31Z7RicnqjHehJDZAnDrCaAxgm0xiVz11P0inWfOa4ya3J/ARPaNWz15KW+HMl+Yc/GhtZiqNZs/s8Fx5wDTsAvsCuKmAnXzK1LPWNb3xDOt1DZHULkTVGYyuNAhVCwJp4ou88+RvuxrpjvnIZz9fHVsXzfEzmfA42sfpMVARJP/d2jHo5UszHAQ1mH4hUIk7JoUvk4ifNxW68QhK0Mva+ZW/qyy4TfZjgtE986UvZtwz/NtUibD9ACOFHH32k+8QMDw/TCy+8IFzBfCdvWBP3DZ9hZyOfwpYvWBWoQVDM27zhDydlf3FH5ikmwo1RSfjj16NsEydGgao0PLPSK6qTdSfzpzvFE6u+E0WJC0Dg0Hre2Jd9sktmjbgbePtCa2urNCnPvmf0d15mgFwIKtzW1qZbYaRH5NayFSsL7kFwsd2aGvmIhrtP570ilI0b+Fx/xRrwBy9H5Kab/gSvX7wV552u+Q+L2ZWI973HR2TDdafPM19lgDKxt2vhwoVCa/oVFeU0b95cS84rMAVWVLy5uVkaDvSGbAwbs1tmSsOGXlozgkSdPF4/hW4eEV7FQZ5xYjWWDVbpHgP2aX790PdeikjB3aLabpwvf0EeBIaDx3/+Jk5+09K/xT3Na7VBbrNbcPjX64NbnDO/IR/sT7gw9Xjg/rTp0yWMZHLJ75dpccEdgacMWlaPYN8s4LRaRrZZoMp1SPaeoGTvKcPzrJxAlZlCw56M098+G6E3+WRC6QRt+Z7OJ9Li5O3vPBOW7FQlUPU6XYs16ou/2M3T3N4TrFRNWXZaRUn30HfzOSgfZ2XpkY/PqFrKQdXAiBVkScvwpMGddfr0ac1GoFNmNM+gS7xnaoCP2MwGrVVAhWA83gC5u1+kRNV88vr50Dn9kVGSpxZYJZkzn+NsZ+Llw9hFgDdc38GHXEyv5YPqssrAylQX77R951KC/u9cgi6wZ0GeTFnReTKPVDJC7mu/FAZqvg8H8qGvm6c3T+g7uS7yZ4J9cZ2dnVJ6+ZrZT0vAikogSPv69evju0zVKlZZWcHHVc6UwKpMYyVQwdft8VG89z3yDbEdV79KWVT+38fACKUS5q1pmBydvBCnH/8vTlR00ax6F82oHk10rZ/fqH0Tr9XkbTa8nx9+VFZK0mTKSAVgOqiR/GAlbp4g38hZLkBf24FXvmCFNm3jOUpVVaUuj/LyMqGtKmpty3XdMrDCfbWUn6Tnn/+Vrtpv4YNhz58/N77V22qgyg31utMUvfI8eULt5C2rkS+rfgoGKo3mZ+CNwtLFb07BIWxpevdymk6Prc4iKAWTJ6QB4LK1rmolDN5IRnrJ1/1rfr0RwgJHa2SQhXByDOd1fJjzAB9ArUWYkG7dus3ygH3LwIrKN/HJb3ffvZYivFqhRdgeXMUa9l9/9CNdP50WH7178Az4IlfI1f8Wb3nYyn2pYTtpqTAuCIEtqsQABUy8QKRGEbny56vlwAthgOmbx8g9fD4Xa0uvhTla6rN8ql+uM6iyC0L/NjU1Zl82/dtSsGKStYTNARHCzlmcsXrl8mVdTSzCTy2NKx2l5JVnKBVsI39te+5kDFReZFElDN+TQVrPD0yA1NBlcnWx7zoZ1X4QFZXHw2H0AcEOkQULF0mnpUzmOQQG9YCi1Sa/otE4YlNkq4yZolLJOFXUz+FDFJpU2ci2n1oCTbAyaPTyq/E1e316cxNVN7Zz+YVd40cfffHwoaIGL+WSzaSBFZWZ1dIinUtQyICKspnrqGLJF2kgXpGr/ZJBqQU2CagmNKu2dlS/q37nVjN6wuVUsfiLVDlr3a2LFn8DUDfysaLz5986gdriIoTZTSpYEW6I81XxaTVBo5a1bKLQgsPUFytXPVNKC6iok6ZW5ftm9k3l22a5zjiI7Wa4jEKLnqDK2Ru4Mvoa1shkFuYC+mbrli0F6SOj7Z9UsMLPCoNd5DQOIw2Thv72+ynQ8SgNJYKktZdK7nhV/lpaVcPOBT8t7WjUblSrX5zx2RcOkKfjcaqZt5tNgoRhm1SNN+qIlaoVK1bo+lXVeFh5fVLBioZUVFRIwdwiKyIiDQdQK9u2U2DOPuqP+TWBqueq0vQAcGW0gK4FVL12GM2Lh3Eg6qdA26epZu4urhjcWBPJqLmFPkGgPbailAJNOlghBDy5c+bMMR3kkuYpfaCxk/wM1N5IUHXoR5mmgao/4qKYnGSVVlUyx4PTPeSjYNs+Kp/Bm/FM2icwF9rb22nDBjYvSoRKAqyQxRPsGTDTidConvLpVD7vAPXHWRNoDd86qkvPTtUc37ktOuxNdb2eNu8JhyjUwe+OquI3MCpsWKOyRfqnnnrKVF2tzlwyYG1jzbqddz1Go+wzzIOwulK//EsU9rVqalQgScuniqLNgjWP6o9nMQt0mASD7tnUsOLLEk8ZpEYmVgiUv/e++zQP9h2vcBG/lAxY0eYH9+yR4l6NCBb54tFhqu/8PPV72yma21xDMomEgKqjlbW0m1yO2qcMHrX7WtdFy42zDHrd7dS0+ik2X3mrg0HCDoADDz9sMFfhk5cUWPGiLhj0RiYCKT4uqLJ1E8Xr1vEavY7ABNSW1oosuOuZggJFqFbSTN5sptiIOFS2iqratrE8xd8ciZHtXj6CEn1RalRSYMVyLfaVN/NLhIU0EKsad7CBAi07aCie+YKvCYJmJAhp1QkZFResRJOCrchXUa2q5BVNBsg7k7fNV0zny/qVh8xbeKFm7dq1QvHJyrKK8b2kwIoGwyuAo2WyY11zCSPJWjU4/U6KBNpM26mIVS2kVgUQtB5AfSjlkoD2NcTThv1t5G1aKxR/AfPrDn5pH06NLEUqObBCu+7du1dMVp4QeVt2sZ2qEY/DHaanUeWgaq1CCzn8a5WLe/loVZlnLOGmYOsucvv0Nzum+Wndy/MGkV0fMv9ifpYcWNH4eo6Z3Llzp6ZnIB4dorqlj9FIWsdNZYU0sVKlofo0bkmla2lUJNDLLzHJ8x+APpSspDqegLpJ3XaFB+Dh/fskMyDPogqerSTBilYfPHiQavk82FyeAcRx+qtmkadpk7bW5I6yRKsWvBsKVwDccEkODE/UbSJ/5Ux2P098NCDjhoZG6QzewtXEPOeSBSsCKA4fOkw4diabkskYVS88SD18OISa8x/DtiVA1dGq2XUz+nsidDI5mDEBZE4ALF45VLOE3zOVYyl2mGX8la9+pSSCVeQ65/osWbCisitWLJeWYpWuLGgBf3UbjQQ4ZE3FHwqg6nWykJ2KJVUdNClvJ3lGo/xDG/RMAKQpFg355lOorp3FhidwlCBbTGhX8pJ3qZPGzGTyq44Aim3bttGHH344Xhkcwx5qvouGSSW4gtGjB1SJmQrQxwvS+YIyAFRsHsRWlgC/bWVWrYeqeSMtqJ8HhCu8szUKM5GxgY2DfHRqxuoY8muRUDu0GGTdiyTLKdS4mtI958ddH1j523HPPdJiTFbykvtZ0mCF+wpBLtgC8/7770sd7Q1WUTI0Z1zYGRLl3tcb+pFe0qoZGbN+MB+12T/cQVjSbGlw07zpHlrFrwVa0OKhxurcW7Fx9uoZfkv38YtJ+rArSR/dGD2ErVAbCLNakvmTd7+myuaRL1RD8cgQyyot7Uq+Q9BVmMms+L9KGqwQBzwDW7Zsoffe4y3VTK6yGZQsa+Mv0s/RfwDX2J/ias6vElCVebNTaQAVQ3xlOWuiZT66e4GX2vhtLlqgw71pNW7pb8MSH138JEnHPkhIB2UMDvOx7Br1sFqrSs1EeRW807dyFsXD70q+VwS/N/DLKOxAJW2zygKUBZrgoTRd1kpJj8IEYHBBm4p0rhSfqgEQlKemUTGMN7H2/ONPl9HB9QHqmKYNVLnu8ieA28558Ar4P2Ee05iX2igg0haZr9HPhJtlV97Ow4tXUgRYWrUL2QKscFJ/ld/uEY4m2eZadmu1agyoIsLWC6SWeDC/bMKlOD8My+d46e+/XMFDP2/v1tqWnc0g6zfyggd4gWcqrfP0ZOU3+xOHbVDlIuobGKFv8st99Y6sNFuelfltAVY0eBkfoLF23UY2AVgrAEFGgCrSSuaXS6uiKAz5335wbOaEylhE334oRBsXsSWmwGshtapcbVf1fFq3YTPhyFI7kUg3lkx79uz/HEVSFdLwqTaEZldW10ZFBhWgwkZdMMNNh7YGqJxfjWk1lfMr3D+7OUALZ4i/FdtsHWAnj7AMDzz2pFlWRc9vK7D2x6t141WVEhSxUdWACj4+PurvMxsDkq2q5Gvld9jBKMPPZRVDq6LubE3x/rRqK5tRFF62Auu5rhQf0YOBWZugTUVt1FxDP7hH+fyqrYs8tGR24R0mKANlSfakdtMsuevj2R5kaTeyFVjPfKT/ogihYR+9pDL0j92iIA/RBzfoRypZ1eEoK6QTkmtVWW5enXifZWk3shVYr/Ym2a+pbjtaAVR0IPbi717po9oivmgYZe1epb113Cpw4T0JV3oczWqVPCfwGeQ3m/SHcwN1fNjPfTuTl4ZGlRNilWrjEvNvepH5iX6izGK4svC83+RFCcjUTmQbzdrHEVa5RCspWhGQolcEgTqrzkW1ZaJMretulDmbyy7GRAsPJGRqJ7INWIfDmcMWQCr9ibQAfSIAVHQcgNLKy6i8DlF0QpmzuWwAqRiULdNilGmmjMJPdc3UTpE3rDhOQBikyC8I0rGkhGlHQ6XL1CoVeOVDWN1qqiqeRlfKNJ/6FjuPiF4qdp1ylodFAHQjXFJ6G/uUDNRcU8o0+K5UZqEgIqiKBxq5LijT73cRhyEUhUQXVopSGYFCbANWgbZMSKI4PWfCPeWFImFDWaTm90LXpxg2sWYD87xpGzNAcksJNlLSpoI9nitZOJJiuxF3iqtdUWaE35dVaA0ig9WITAVFX9BkhZaLZZUXdZibBSoq3Mf7lYq1mqQUEPy7NwYZrBrPiAw0ZT4j35X5RWVqhH8h09oGrOUh7aoCpNKwn0tV5pCgWjI4zM9zRH9MfddyDm7WXOJXotJlDtDWAqtZU1oJVj2ZWtMq67hoI8C6ckxzqikffadUTkbwaqmhL0cGraQAyiV+2Vova9diE8q83MN7tTQ0q5k6ZU+oIFM7kW3AWskheuVYO5cxhE/+gzZVags94cvZtdJBu752ml8hWGRCmVi3LwRlyyjEGxwhUzuRbcAKoc6o4U3EY1pUGvbxXZDGsC2UGpFdz/Ar2/EG62IRynrmeIyjygpTohKscI2184ZHu5GtaowNegiIliZRBiRtBHLyPv8IL0L825GIgVLMJUVZhXLSK4GKWrKhQXObTezNMdfUvHPbCqztDWHeBm1s6MoHqJAmVpN+9bs4nb6sd+hr3rIfz4gyUJa3APgBULPBGuN3ErXXTzzpZrxCJfrFVmBd1FbNOkFs7AdIRYEKbSprVGU/ubiof309Sp/w3v9CEXj/6DVW44UrYkLVeRMNLWqrmnC91C/YCqx1ZWlqKI9O0BRKIRsBKfLlAqnMD7NyBCn/y5EoDbOz3moCT/AuVCB0Lq2KZ2J6VYzqy61uTeH52QqsiN5f3OIl3nGSk1Qu50yLi1pAlTOhw197L0F/87T1wyZ4/g/zzh6m5bLNfubii9NkFvEJMpCl3cheYPXzUT2tFWwKZMISvzKvaHeD2rCfKxe6FO6kN88m6Cv/MEQXu1OmVrewMnaxO0lfZl6vf8ALAIZqnquGua9l+1TlVChvIcswyLK0G9kmNgCChcN+Tn2K6spT1D/ikZznRkAKHiLaFOlkkvljHb2rL0V/+pMRun8Fv/tgnpdmN4qfyoIY1csM0jc/TEhusT5eVg0UCC+5NCrag7bUVqSojWWotUomt73UPm0FVgivfZqPZjYmqPeSsYCPfEGq7DDYsL1DKWnS9fr7CZrPB7Mta/XQ4tkeqq90T1h5AmhuDvLBbGz3/vZ8kneUJukyH8wG1HgKOKapgpXLbW3iM7pYhnYk24G1POShzuY4vXcJA5pYj1sBVLlzAViYBlcYdPj7n/f5F1cD1+eyH7hxbJNh91CazvI6vwQcBkk8ProtB3klBjJDiz/Vhn8U4+bFjhUzk1RZZrtul6Rky1pvWhqkp0/GaUTAZ28lUHPhKq6Y7Z26lOmTzQ7Bk4Cai4lF17SAys8L+b1J2rTU+mOQLKq+Lhsx1aTLprgJptWFaF17nGIaIfUAaaGAqjbMApzKv2JKRa1Och0ibH3cMWOAIDu7ki3BCmHvW1dBydjQBLdPviCF5hEhPVCI8LA6DeqkVS88067EEH1hZ7PVRReVn23B2lQboANrvdJxlJBYPiCV8hkQtxYgDLCxNKkeUFFYjLXqo+u8BJnZmWwLVgh9z9paagrc4OAW42uV0KSi2hRllSJQUS89glat9vTQ7rtq9JKW/H1bg7Wq3Eu71lSSO20s9tQoSEsVqCJa1U0JenRzDftX7emuUj5Btgarh6OkNy2tobnTErraVdakRoGqFFYpfRcBKl5w0dYQoXWLQvxWmUL7IgovHVuDFeKpr/bSw3eXUSx8g32duTvECEDBUwQISDdZJFw/T5oeXhuiaTa3VWU52x6saMjqhdW0f20VO94nBoUYBaosmFL9FAEq2hzliJV7Orppw7LaCStrpdo2vXrdFmBFIx+/r4kWNfXyrtSYNHFChxkFqggQ9ARa6Puoox5FeZssZPHU/nl6SW11/7YBK9bav7anmeY2hlnDGt9HLQKCye5ZkTrG+WGdWzdEv//QtILGH0yGLG4bsEJ4LY0h+vzWKqr09vI+LQEVxHnsoE3RNnjn9MCK99qWuXvos1uraVZjGbLdVnRbgRXzq5Xzq+nw9hoKugcmxL1m95xe52enn6zfIvXEoxkbuUaf21JBa5fU3DZ2qlLmtxVY5Ybds7qBV2z4jNV0L6ujiQsGdtGmaI9IXTH0e9LD9IV7amnPhhmyGG67TxcvU4qNlzZs+q+P36B/+u9BCqdreXG8eK/usUpUokANuPrpiftqaOeaequKLkk+tzVY4RR/41Qf75+6QTF3o/Ri3ZLshRyVEllBho0aSH9C39zTSOt5ccRtx/D/HG1Xu3Rbg1Vu9KnzA/TnP+2mkUQdH0YMyyf34oGcfrI/RTRqKsXvsXXdoG892ERrFtvvBWz5yHhKgBWCQVT/PzxzmU5f5VNd+M3QHk+BNkDl0wuKPHpATSZ590EyQp2zE5KNOm9WhSL37f11yoAV3TgYTtKzR2/Qz94MUzhRRl5f8V7KJgIjXaAmIhTyDNPu1SHau66RaipK84ETaWs+aaYUWCEgbEO58EmcvvuzC3Tyqo/qahvykZvlefRs1N7+G9RSHaU/emQmLWBt6ivUCW6Wt8w6hlMOrErR/exIF/37G8MUpypKu/yqgTDKPIX4rqpR+YaL+BjM9BDtXuGnw7tmFqJ42/Cc0mBFL13qCtMvjvXQ7y4l6Vq/j2fUXjYPihdRnwuo8Jsmkwl+gVuMOnmr9wNraqmjuey2dPQbeVKmPFghrBhvSj17dZBOXozSr4/38OnTHgoEKxi0IckprxJ5aETOE9ICpCD5E9+TbJOGw8PUWp+gbavqaVWbj+a2VPKuVNx1yAGrAgMJ3gPSP5SgUxeH6MevdNGZ6wkKlVWT11/JEVy3JjMAb74AnqhJk7zxcZBGRvppYbOXDmydTp1zKqi6gjX8bRAwrRCv6a8OWDVE+Gd/8V16jQ+x8NUtIFegntJuP3n8NeTxlXFgyZivllEL4EoaMnstcAzUo/dGb+KFc6n4iOR+Ssf7KR29SfGeM7RxYZr+5NtPadTGueWAVQMDly5doj/8g9+naDRCvqp2ivuaKM1gdQUb+K+eTzMMktvPDnmPnzUvjg9i4LpH9zqlU3EGMCZIHJuQjFEq1k9eV5RS0T4JoG4GqTf2MSUGzlEgEKS//Ku/ptbWVo3aOLcca0gDA83NzbTzgV3005/+lFyDFxh4F0ZTe0Lk8vFGRencIH7Vuwf+WlaZULGesY15SY6plVQqwBqRNjUCuK4YR4MlwxKwE5wnzhH9Dz60i1CWQ9oScMCqIR+/308bN26ko0ePUldXlwQwKXmSNST/KY/eHDMKxrnhd/Y1hurofRfOngaW09TS0iKVgbIc0pbAbRkiqN1kY3fnz59Pd9555y2gZmSXISn6mZFZ4gneKMMhfQk4YNWXEe3Zs4eqqqw/g7+yslLiLVAFJwlLwAGrAAxgTz7yyCM0ODgokFosCXiBp2OriskLqRywCsrq/vvvp0WLl0h2pmAW1WSwVcFr586dqmmcGxMl4IB1okxyXvH5fPTkE1/iM2EFDoXNyeHWRfAAL/B0SFwCDljFZUXz5s2jbVu2UCKReWiwARYUi8Vo6+bNEi8j+Zy0jhlgCANlZWV07733Um1trWFzAEM/tqHU1NTQjh07CLwcMiYBR7MakBdWqJYvX06LFy82BFYAFYRP5F25cqWKK8xAZaZgUgesBjs9EAjQ3r17KR8nPvLu27ePl1eLF4JosHklndwBax7d09nZSes3bKCIzmQLmlTWqkiLPMjrUH4ScMCan9zo0OOPS/ZnruxKkMr3Yecij0P5S8ABa56yq6+vp0OHDk1YKJA1qZItFgCQFnkcyl8CDljzlx2tX7+eliztlFxZubQpWMPNtbRzmZTWRFFOVpaAA1YTMEC8AOIG/BoTpkAwWLDYAhNVt2VWB6wmug2urLvW3ElzebEAPtRswjXcQxq1I+Sz8zi/1SXggFVdNkJ34OR/gOMG3NnvvuTcuIZ7SOOQeQk4YDUvQ9q+fTt1dHTw9ml+O9oYwYbFNdxzyBoJOGC1Ro709a9/PeN4eJgAuOaQdRJwwGqRLOfOnUsHDhzgff98jhb/Pfjgg4RrDlknAQes1slSmvXDl4o/LMk6ZK0EnA2DFsqzoaGB7rnnHokjvjtkrQSccwOslSf19/dLHKurp8YBvxaLT5OdA1ZN8Tg3S0kCjs1aSr3h1EVTAg5YNcXj3CwlCThgLaXecOqiKYH/B9RYbtYKalH2AAAAAElFTkSuQmCC;" vertex="1" parent="2">
                    <mxGeometry x="277" y="229" width="171" height="161" as="geometry"/>
                </mxCell>
                <mxCell id="13" value="0x3Ds ---&amp;gt; {a: &quot;Hello World}&lt;br&gt;0xL83 --&amp;gt; {b: &quot;I am Eric&quot;)" style="rounded=1;whiteSpace=wrap;html=1;align=left;" vertex="1" parent="2">
                    <mxGeometry x="85" y="449" width="170" height="239" as="geometry"/>
                </mxCell>
                <mxCell id="15" value="Memery Heap" style="whiteSpace=wrap;html=1;" vertex="1" parent="2">
                    <mxGeometry x="116" y="466" width="120" height="60" as="geometry"/>
                </mxCell>
                <mxCell id="14" value="console.log(b)&lt;br&gt;sayHiToEric()&lt;br&gt;&lt;strike&gt;cosole.log(a) &lt;/strike&gt;(Poped right away)&lt;br&gt;sayHello()" style="rounded=1;whiteSpace=wrap;html=1;align=left;" vertex="1" parent="2">
                    <mxGeometry x="448" y="452" width="189" height="236" as="geometry"/>
                </mxCell>
                <mxCell id="16" value="Call stack" style="whiteSpace=wrap;html=1;" vertex="1" parent="2">
                    <mxGeometry x="485" y="463" width="120" height="60" as="geometry"/>
                </mxCell>
                <mxCell id="22" value="Web API" style="whiteSpace=wrap;html=1;fillColor=#003300;fontColor=#ffffff;strokeColor=#3700CC;" vertex="1" parent="2">
                    <mxGeometry x="918" y="202" width="120" height="60" as="geometry"/>
                </mxCell>
                <mxCell id="23" value="Callback Queue" style="whiteSpace=wrap;html=1;fillColor=#003300;fontColor=#ffffff;strokeColor=#3700CC;" vertex="1" parent="2">
                    <mxGeometry x="921" y="463" width="120" height="60" as="geometry"/>
                </mxCell>
                <mxCell id="24" value="Event Loop" style="verticalLabelPosition=bottom;html=1;verticalAlign=top;align=center;strokeColor=none;fillColor=#00BEF2;shape=mxgraph.azure.sql_datasync;" vertex="1" parent="2">
                    <mxGeometry x="725" y="374" width="125" height="113" as="geometry"/>
                </mxCell>
                <mxCell id="39" value="DOM" style="whiteSpace=wrap;html=1;fillColor=#333300;fontColor=#ffffff;strokeColor=#3700CC;" vertex="1" parent="2">
                    <mxGeometry x="950" y="269" width="88" height="33" as="geometry"/>
                </mxCell>
                <mxCell id="40" value="AJAX" style="whiteSpace=wrap;html=1;fillColor=#333300;fontColor=#ffffff;strokeColor=#3700CC;" vertex="1" parent="2">
                    <mxGeometry x="950" y="311" width="88" height="33" as="geometry"/>
                </mxCell>
                <mxCell id="41" value="Timeout&lt;span style=&quot;color: rgba(0, 0, 0, 0); font-family: monospace; font-size: 0px; text-align: start;&quot;&gt;%3CmxGraphModel%3E%3Croot%3E%3CmxCell%20id%3D%220%22%2F%3E%3CmxCell%20id%3D%221%22%20parent%3D%220%22%2F%3E%3CmxCell%20id%3D%222%22%20value%3D%22AJAX%22%20style%3D%22whiteSpace%3Dwrap%3Bhtml%3D1%3BfillColor%3D%23333300%3BfontColor%3D%23ffffff%3BstrokeColor%3D%233700CC%3B%22%20vertex%3D%221%22%20parent%3D%221%22%3E%3CmxGeometry%20x%3D%22976%22%20y%3D%22314%22%20width%3D%2288%22%20height%3D%2233%22%20as%3D%22geometry%22%2F%3E%3C%2FmxCell%3E%3C%2Froot%3E%3C%2FmxGraphModel%3E&lt;/span&gt;" style="whiteSpace=wrap;html=1;fillColor=#333300;fontColor=#ffffff;strokeColor=#3700CC;" vertex="1" parent="2">
                    <mxGeometry x="950" y="351" width="88" height="33" as="geometry"/>
                </mxCell>
                <mxCell id="42" value="onClick" style="whiteSpace=wrap;html=1;fillColor=#333300;fontColor=#ffffff;strokeColor=#3700CC;" vertex="1" parent="2">
                    <mxGeometry x="953" y="534" width="88" height="33" as="geometry"/>
                </mxCell>
                <mxCell id="43" value="onLoad" style="whiteSpace=wrap;html=1;fillColor=#333300;fontColor=#ffffff;strokeColor=#3700CC;" vertex="1" parent="2">
                    <mxGeometry x="953" y="578" width="88" height="33" as="geometry"/>
                </mxCell>
                <mxCell id="44" value="onXXX&lt;br&gt;(eventListender)" style="whiteSpace=wrap;html=1;fillColor=#333300;fontColor=#ffffff;strokeColor=#3700CC;" vertex="1" parent="2">
                    <mxGeometry x="953" y="622" width="88" height="33" as="geometry"/>
                </mxCell>
                <mxCell id="45" value="" style="html=1;verticalLabelPosition=bottom;align=center;labelBackgroundColor=#ffffff;verticalAlign=top;strokeWidth=2;strokeColor=#0080F0;shadow=0;dashed=0;shape=mxgraph.ios7.icons.eye;fillColor=#333300;" vertex="1" parent="2">
                    <mxGeometry x="832" y="460" width="67" height="36" as="geometry"/>
                </mxCell>
            </root>
        </mxGraphModel>
    </diagram>
</mxfile>